<svg width="24" height="24" viewBox="0 0 24 24" fill="none" xmlns="http://www.w3.org/2000/svg">
    <path class="fill" d="M18.3248 2.73182C17.8569 2.26321 17.2227 2 16.5614 2C15.9001 2 15.2659 2.26321 14.798 2.73182L11.9217 5.60954C11.7986 5.0537 11.4903 4.55655 11.0475 4.20017C10.6047 3.8438 10.0539 3.6495 9.48616 3.64936H4.49539C3.83357 3.64936 3.19886 3.913 2.73088 4.38228C2.26291 4.85156 2 5.48805 2 6.15172V19.4943C2 20.3451 2.42422 21.0991 3.07135 21.5496C3.47561 21.8332 3.96969 22 4.50038 22H17.8091C18.4709 22 19.1056 21.7364 19.5736 21.2671C20.0416 20.7978 20.3045 20.1613 20.3045 19.4976V14.4929C20.3044 13.9383 20.1205 13.3994 19.7817 12.9609C19.4429 12.5225 18.9685 12.2093 18.433 12.0706L21.2694 9.22128C21.7372 8.75202 22 8.11565 22 7.45211C22 6.78857 21.7372 6.1522 21.2694 5.68294L18.3248 2.73016V2.73182ZM14.6117 11.9906H11.9832V9.35474L14.61 11.9906H14.6117ZM15.9725 3.9096C16.1285 3.75323 16.34 3.66538 16.5606 3.66538C16.7812 3.66538 16.9927 3.75323 17.1487 3.9096L20.0949 6.86239C20.1723 6.93987 20.2338 7.03192 20.2757 7.13325C20.3177 7.23459 20.3393 7.34323 20.3393 7.45294C20.3393 7.56266 20.3177 7.6713 20.2757 7.77263C20.2338 7.87397 20.1723 7.96602 20.0949 8.0435L17.1503 10.9963C17.0731 11.074 16.9813 11.1356 16.8802 11.1776C16.7792 11.2197 16.6708 11.2413 16.5614 11.2413C16.452 11.2413 16.3437 11.2197 16.2426 11.1776C16.1416 11.1356 16.0498 11.074 15.9725 10.9963L13.028 8.0435C12.872 7.88708 12.7844 7.67496 12.7844 7.45378C12.7844 7.2326 12.872 7.02048 13.028 6.86406L15.9725 3.91127V3.9096ZM10.318 6.15172V11.9906H3.66359V6.15172C3.66359 5.93049 3.75123 5.71833 3.90722 5.5619C4.06321 5.40548 4.27478 5.3176 4.49539 5.3176H9.48616C9.70677 5.3176 9.91834 5.40548 10.0743 5.5619C10.2303 5.71833 10.318 5.93049 10.318 6.15172ZM3.66858 19.4976V13.6588H10.318V20.3284H4.49539C4.38667 20.3284 4.27902 20.3069 4.1786 20.2652C4.07818 20.2234 3.98696 20.1622 3.91016 20.085C3.83336 20.0078 3.77249 19.9162 3.73104 19.8154C3.68959 19.7147 3.66836 19.6067 3.66858 19.4976ZM11.9816 13.6588H17.8091C18.0297 13.6588 18.2413 13.7467 18.3973 13.9031C18.5533 14.0595 18.6409 14.2717 18.6409 14.4929V19.4976C18.6409 19.7189 18.5533 19.931 18.3973 20.0875C18.2413 20.2439 18.0297 20.3318 17.8091 20.3318H11.9816V13.6588Z" fill="none"/>
</svg>
