<svg width="24" height="24" viewBox="0 0 24 24" fill="none" xmlns="http://www.w3.org/2000/svg">
    <path class="stroke" d="M22 20.0246V12.2947C22.0001 11.7569 21.889 11.2248 21.6735 10.7309C21.458 10.237 21.1428 9.79172 20.747 9.42239L13.374 2.53997C13.0027 2.19321 12.511 2 12 2C11.489 2 10.9973 2.19321 10.626 2.53997L3.253 9.42239C2.85722 9.79172 2.54195 10.237 2.3265 10.7309C2.11104 11.2248 1.99994 11.7569 2 12.2947V20.0246C2 20.5485 2.21071 21.0509 2.58579 21.4214C2.96086 21.7919 3.46957 22 4 22H20C20.5304 22 21.0391 21.7919 21.4142 21.4214C21.7893 21.0509 22 20.5485 22 20.0246Z" stroke="none" stroke-width="2" stroke-linecap="round" stroke-linejoin="round"/>
</svg>
