<svg width="20" height="20" viewBox="0 0 20 20" fill="none" xmlns="http://www.w3.org/2000/svg">
<path d="M5.625 7V6.5625C5.625 4.60156 8.57812 3.125 12.5 3.125C16.4219 3.125 19.375 4.60156 19.375 6.5625V9.6875C19.375 11.3203 17.3281 12.6172 14.375 13.0078V13.4375C14.375 15.3984 11.4219 16.875 7.5 16.875C3.57812 16.875 0.625 15.3984 0.625 13.4375V10.3125C0.625 8.69531 2.60938 7.39844 5.625 7ZM1.875 10.3125C1.875 11.3438 4.28125 12.5 7.5 12.5C7.78906 12.5 8.07812 12.4922 8.36719 12.4688C6.67969 11.8594 5.625 10.8594 5.625 9.6875V8.25781C3.28906 8.60938 1.875 9.55469 1.875 10.3125ZM14.375 11.7344V9.88281C13.7532 9.96272 13.1269 10.0019 12.5 10C11.8731 10.0019 11.2468 9.96272 10.625 9.88281V11.7344C11.2453 11.831 11.8723 11.8781 12.5 11.875C13.1277 11.8781 13.7547 11.831 14.375 11.7344ZM6.875 8.58594V9.6875C6.875 10.3438 7.84375 11.0469 9.375 11.4766V9.64844C8.36719 9.40625 7.51562 9.03906 6.875 8.58594ZM12.5 4.375C9.28125 4.375 6.875 5.53125 6.875 6.5625C6.875 7.59375 9.28125 8.75 12.5 8.75C15.7188 8.75 18.125 7.59375 18.125 6.5625C18.125 5.53125 15.7188 4.375 12.5 4.375ZM18.125 9.6875V8.58594C17.4844 9.03906 16.6328 9.40625 15.625 9.64844V11.4766C17.1562 11.0469 18.125 10.3438 18.125 9.6875ZM13.125 13.4375V13.1094L12.5 13.125C12.1927 13.125 11.8958 13.1172 11.6094 13.1016C11.2969 13.2109 10.9688 13.3047 10.625 13.3906V15.2266C12.1562 14.7969 13.125 14.0938 13.125 13.4375ZM9.375 15.4844V13.625C8.7533 13.7066 8.12702 13.7483 7.5 13.75C6.87311 13.7519 6.24678 13.7127 5.625 13.6328V15.4844C6.86797 15.6719 8.13203 15.6719 9.375 15.4844ZM4.375 15.2266V13.3984C3.36719 13.1562 2.51562 12.7891 1.875 12.3359V13.4375C1.875 14.0938 2.84375 14.7969 4.375 15.2266Z" fill="#6B798F"/>
</svg>
