<svg width="20" height="20" viewBox="0 0 20 20" fill="none" xmlns="http://www.w3.org/2000/svg">
<path d="M12.3816 10.1316C12.8482 10.6091 13.1124 11.1882 13.3032 11.9882L13.3866 12.3682L13.5357 13.1574C13.6099 13.5282 13.6674 13.7341 13.7474 13.9141C13.9974 14.4749 14.4391 15.0507 15.0766 15.6349C15.1386 15.6899 15.1891 15.7567 15.2251 15.8314C15.2611 15.9062 15.2818 15.9873 15.2861 16.0701C15.2905 16.1529 15.2782 16.2358 15.2502 16.3138C15.2222 16.3919 15.1789 16.4636 15.1229 16.5247C15.0669 16.5859 14.9992 16.6353 14.9239 16.67C14.8487 16.7048 14.7672 16.7242 14.6843 16.7272C14.6014 16.7302 14.5188 16.7166 14.4412 16.6873C14.3636 16.658 14.2926 16.6136 14.2324 16.5566C13.4757 15.8632 12.9324 15.1541 12.6057 14.4232C12.4816 14.1449 12.4057 13.8816 12.3174 13.4399L12.1424 12.5232L12.1307 12.4732C11.9807 11.7649 11.7941 11.3191 11.4874 11.0049C10.8932 10.3966 9.52324 10.5574 9.15658 11.1366C8.68824 11.8774 8.56908 13.1332 8.94074 14.3999C9.22824 15.3782 9.60908 16.3416 10.0841 17.2891C10.1243 17.3627 10.1493 17.4437 10.1576 17.5272C10.1659 17.6108 10.1572 17.6951 10.1322 17.7752C10.1072 17.8553 10.0663 17.9296 10.0119 17.9936C9.95755 18.0575 9.89086 18.1099 9.81583 18.1475C9.7408 18.1851 9.65896 18.2073 9.57519 18.2126C9.49142 18.2179 9.40744 18.2063 9.32826 18.1784C9.24908 18.1506 9.17632 18.107 9.11432 18.0504C9.05232 17.9939 9.00236 17.9254 8.96741 17.8491C8.46678 16.8554 8.05652 15.8187 7.74158 14.7516C7.27324 13.1582 7.42825 11.5316 8.09991 10.4682C8.89408 9.21322 11.2182 8.93989 12.3816 10.1316ZM10.4099 12.0607C10.492 12.0579 10.5738 12.0714 10.6507 12.1002C10.7276 12.1291 10.7981 12.1728 10.8581 12.2289C10.918 12.2851 10.9664 12.3524 11.0003 12.4272C11.0342 12.502 11.0531 12.5828 11.0557 12.6649C11.0986 13.9522 11.5168 15.1989 12.2591 16.2516L12.4224 16.4732L12.6724 16.7982C12.7683 16.9232 12.8135 17.0798 12.7988 17.2367C12.7842 17.3935 12.7109 17.5391 12.5936 17.6442C12.4762 17.7493 12.3235 17.8062 12.166 17.8036C12.0085 17.8009 11.8578 17.7389 11.7441 17.6299L11.6824 17.5607L11.4324 17.2357C10.43 15.9333 9.86134 14.3492 9.80658 12.7066C9.80096 12.5409 9.86136 12.3798 9.9745 12.2587C10.0876 12.1376 10.2443 12.0664 10.4099 12.0607ZM7.31908 7.82489C9.07908 6.52239 11.3807 6.59322 12.9291 7.58822C13.7041 8.08656 14.2916 8.66739 14.6816 9.33239C14.7656 9.47538 14.7893 9.64589 14.7476 9.80639C14.7058 9.96689 14.6021 10.1042 14.4591 10.1882C14.3161 10.2722 14.1456 10.2959 13.9851 10.2542C13.8246 10.2125 13.6872 10.1087 13.6032 9.96572C13.3182 9.47905 12.8716 9.03655 12.2532 8.63989C11.1182 7.90989 9.37824 7.85655 8.06324 8.82989C6.69741 9.84072 6.12241 11.5724 6.29408 13.3982C6.38991 14.4207 6.69741 15.4541 7.22158 16.5016C7.2941 16.6497 7.30513 16.8205 7.25228 16.9767C7.19942 17.1329 7.08697 17.2619 6.93942 17.3356C6.79186 17.4092 6.62118 17.4216 6.46455 17.3699C6.30792 17.3183 6.17806 17.2069 6.10324 17.0599C5.51241 15.8791 5.15991 14.6957 5.04908 13.5149C4.84074 11.2899 5.55741 9.12906 7.31908 7.82489ZM14.9691 11.4091C15.1345 11.4007 15.2964 11.4583 15.4194 11.5692C15.5424 11.6801 15.6163 11.8353 15.6249 12.0007C15.6507 12.5041 15.7749 12.9149 15.9932 13.2457C16.1766 13.5232 16.3382 13.6832 16.4624 13.7457L16.5132 13.7657C16.6719 13.8137 16.8051 13.9227 16.8834 14.0688C16.9617 14.215 16.9787 14.3862 16.9307 14.5449C16.8828 14.7036 16.7738 14.8367 16.6276 14.915C16.4815 14.9933 16.3103 15.0103 16.1516 14.9624C15.6957 14.8249 15.3041 14.4724 14.9491 13.9332C14.6032 13.4082 14.4141 12.7816 14.3766 12.0657C14.3723 11.9838 14.3842 11.9017 14.4116 11.8244C14.4391 11.747 14.4815 11.6758 14.5364 11.6148C14.5913 11.5539 14.6578 11.5043 14.7319 11.469C14.806 11.4337 14.8863 11.4133 14.9682 11.4091H14.9691ZM8.75824 5.08489C8.79194 5.15979 8.81054 5.2406 8.81299 5.32269C8.81543 5.40479 8.80168 5.48656 8.7725 5.56334C8.74332 5.64011 8.6993 5.71038 8.64294 5.77013C8.58659 5.82988 8.51902 5.87794 8.44408 5.91155C6.91075 6.60155 5.78241 7.58489 5.04158 8.86822C4.11408 10.4749 3.86325 12.3524 4.07158 13.9349C4.0823 14.0163 4.07689 14.099 4.05564 14.1784C4.03439 14.2577 3.99772 14.3321 3.94773 14.3972C3.84677 14.5288 3.69768 14.6149 3.53324 14.6366C3.45183 14.6473 3.36909 14.6419 3.28976 14.6206C3.21044 14.5994 3.13607 14.5627 3.07092 14.5127C2.93933 14.4118 2.85324 14.2627 2.83158 14.0982C2.59158 12.2641 2.87741 10.1166 3.95908 8.24322C4.83658 6.72572 6.16658 5.56655 7.93241 4.77155C8.00726 4.73783 8.08802 4.71919 8.17008 4.71668C8.25214 4.71418 8.33389 4.72787 8.41066 4.75697C8.48742 4.78606 8.55771 4.83 8.61749 4.88627C8.67727 4.94253 8.72538 5.01002 8.75908 5.08489H8.75824ZM10.7107 4.42905C12.2357 4.45989 13.7541 5.16072 15.2599 6.50072C16.7791 7.85239 17.6941 9.68989 18.0049 11.9841C18.0179 12.0662 18.0143 12.1502 17.9943 12.2309C17.9744 12.3117 17.9386 12.3877 17.8889 12.4544C17.8393 12.5211 17.7768 12.5773 17.7051 12.6196C17.6335 12.6618 17.5541 12.6894 17.4717 12.7006C17.3893 12.7118 17.3054 12.7064 17.2251 12.6848C17.1448 12.6632 17.0696 12.6258 17.0039 12.5747C16.9382 12.5236 16.8834 12.46 16.8427 12.3875C16.8019 12.315 16.776 12.235 16.7666 12.1524C16.4941 10.1424 15.7157 8.57989 14.4291 7.43489C13.1291 6.27822 11.8832 5.70322 10.6857 5.67905C10.6037 5.67741 10.5227 5.65962 10.4475 5.6267C10.3723 5.59377 10.3043 5.54636 10.2475 5.48716C10.1906 5.42796 10.1459 5.35814 10.116 5.28168C10.0861 5.20523 10.0716 5.12363 10.0732 5.04155C10.0749 4.95948 10.0927 4.87853 10.1256 4.80333C10.1585 4.72813 10.2059 4.66015 10.2651 4.60327C10.3243 4.5464 10.3942 4.50174 10.4706 4.47185C10.5471 4.44195 10.6287 4.42741 10.7107 4.42905ZM4.98491 4.44072C5.03965 4.50202 5.08177 4.57352 5.10884 4.65111C5.13592 4.72871 5.14743 4.81088 5.14271 4.89293C5.13798 4.97498 5.11713 5.05529 5.08133 5.12927C5.04553 5.20325 4.99549 5.26944 4.93408 5.32405C4.70991 5.52239 4.47574 5.75989 4.23074 6.03572C4.00074 6.29572 3.76408 6.63239 3.52574 7.04656C3.48501 7.11821 3.4305 7.1811 3.36535 7.2316C3.30021 7.2821 3.22572 7.31922 3.14618 7.34081C3.06663 7.36241 2.9836 7.36806 2.90186 7.35743C2.82013 7.34681 2.7413 7.32012 2.66992 7.27891C2.59853 7.23769 2.53601 7.18277 2.48594 7.11729C2.43587 7.05182 2.39925 6.97708 2.37818 6.8974C2.35712 6.81771 2.35202 6.73464 2.36318 6.65298C2.37435 6.57131 2.40156 6.49266 2.44324 6.42155C2.68613 5.98911 2.97172 5.58208 3.29574 5.20655C3.57158 4.89489 3.84074 4.62322 4.10241 4.38989C4.16369 4.33527 4.23513 4.29326 4.31265 4.26626C4.39016 4.23926 4.47224 4.22779 4.55419 4.23251C4.63614 4.23723 4.71636 4.25805 4.79026 4.29377C4.86417 4.3295 4.93031 4.37943 4.98491 4.44072ZM10.4724 1.96905C12.2999 2.05489 13.8307 2.55489 15.0807 3.51989C15.212 3.62122 15.2977 3.77056 15.3189 3.93504C15.34 4.09953 15.295 4.26569 15.1937 4.39697C15.0923 4.52825 14.943 4.6139 14.7785 4.63508C14.614 4.65626 14.4479 4.61122 14.3166 4.50989C13.2791 3.70822 11.9957 3.29239 10.4141 3.21822C8.82824 3.14322 7.52991 3.45489 6.48574 4.03405C6.16574 4.21155 5.80658 4.12239 5.62574 3.82822C5.58165 3.75864 5.55197 3.68091 5.53845 3.59965C5.52494 3.51839 5.52786 3.43524 5.54706 3.35513C5.56625 3.27502 5.60132 3.19957 5.65019 3.13326C5.69906 3.06694 5.76074 3.01111 5.83158 2.96905C7.11074 2.21572 8.64991 1.88405 10.4732 1.96905H10.4724Z" fill="#6B798F"/>
</svg>
