<svg width="20" height="20" viewBox="0 0 20 20" fill="none" xmlns="http://www.w3.org/2000/svg">
<path d="M4.79181 5.83301C4.79181 6.10927 4.90156 6.37423 5.09691 6.56958C5.29226 6.76493 5.55721 6.87467 5.83348 6.87467C6.10974 6.87467 6.3747 6.76493 6.57005 6.56958C6.7654 6.37423 6.87514 6.10927 6.87514 5.83301C6.87514 5.55674 6.7654 5.29179 6.57005 5.09644C6.3747 4.90109 6.10974 4.79134 5.83348 4.79134C5.55721 4.79134 5.29226 4.90109 5.09691 5.09644C4.90156 5.29179 4.79181 5.55674 4.79181 5.83301ZM7.08348 1.70801C8.53085 1.70889 9.91868 2.28425 10.9421 3.30769C11.9656 4.33114 12.5409 5.71897 12.5418 7.16634C12.5418 7.48884 12.5001 7.79967 12.4501 8.08634C12.4428 8.12243 12.4443 8.15975 12.4544 8.19514C12.4646 8.23053 12.4831 8.26296 12.5085 8.28967L17.7043 13.4863C18.1341 13.9159 18.3757 14.4986 18.376 15.1063V16.9163C18.376 17.7213 17.7226 18.3747 16.9176 18.3747H14.8343C14.4475 18.3747 14.0766 18.221 13.8031 17.9475C13.5296 17.674 13.376 17.3031 13.376 16.9163V15.8747H11.9168C11.3418 15.8747 10.8751 15.408 10.8751 14.833V13.3747H9.41681C9.14706 13.3749 8.88775 13.2704 8.69347 13.0833C8.49918 12.8961 8.38507 12.6409 8.37514 12.3713C7.96181 12.478 7.52514 12.5413 7.08348 12.5413C5.63611 12.5405 4.24827 11.9651 3.22483 10.9417C2.20138 9.91821 1.62603 8.53038 1.62514 7.08301C1.62514 4.05717 4.08598 1.70801 7.08348 1.70801ZM11.2918 7.16634C11.2909 6.05049 10.8473 4.9806 10.0582 4.19158C9.26922 3.40255 8.19932 2.95889 7.08348 2.95801C4.74848 2.95801 2.87514 4.77551 2.87514 7.08301C2.87603 8.19886 3.31968 9.26875 4.10871 10.0578C4.89773 10.8468 5.96763 11.2905 7.08348 11.2913C7.65014 11.2913 8.23348 11.1488 8.75431 10.9247C8.84944 10.8838 8.95323 10.8672 9.05635 10.8764C9.15948 10.8856 9.25871 10.9202 9.34513 10.9772C9.43155 11.0342 9.50246 11.1118 9.55148 11.203C9.6005 11.2942 9.6261 11.3961 9.62598 11.4997V12.1247H11.0835C11.6585 12.1247 12.1251 12.5913 12.1251 13.1663V14.6247H13.5835C14.1585 14.6247 14.6251 15.0913 14.6251 15.6663V16.9163C14.6251 16.9716 14.6471 17.0246 14.6862 17.0637C14.7252 17.1027 14.7782 17.1247 14.8335 17.1247H16.9168C16.9721 17.1247 17.0251 17.1027 17.0641 17.0637C17.1032 17.0246 17.1251 16.9716 17.1251 16.9163V15.1063C17.1251 14.8305 17.0151 14.5647 16.8201 14.3697L11.6235 9.17384C11.4562 9.00513 11.3321 8.79858 11.2616 8.57171C11.1911 8.34483 11.1763 8.10431 11.2185 7.87051C11.2632 7.63834 11.2877 7.40274 11.2918 7.16634Z" fill="#6B798F"/>
</svg>
