<svg width="20" height="20" viewBox="0 0 20 20" fill="none" xmlns="http://www.w3.org/2000/svg">
<path d="M3.7793 5.19118L8.94412 4.54669L7.32567 6.85658L7.29745 6.81048L7.12382 7.09413L3.7793 5.19118ZM3.09778 5.95395L6.57277 7.93113L6.3366 8.26819H6.40516L4.73519 10.9964L3.09778 5.95395ZM5.48719 11.6833L7.29745 8.72591L9.10771 11.6833H5.48719ZM9.10771 12.6833H9.5L9.50001 17.2808L5.66338 12.6833H9.10771ZM4.65752 13.0387L7.87658 16.8962L2.38395 13.8157L4.29689 12.8845L4.45462 13.3702L4.65752 13.0387ZM3.8018 12.0133L1.89552 12.9413L2.47864 7.28511L3.90684 11.6833H3.52643L3.8018 12.0133ZM5.40905 3.98005L9.5 2.11677V3.34524L8.94481 3.27641L9.11391 3.51774L5.40905 3.98005ZM10.5 3.34478V2.11468L14.6231 3.98035L10.8865 3.51713L11.0559 3.27542L10.5 3.34478ZM11.0552 4.54569L16.2591 5.19084L12.8773 7.0959L12.7025 6.81048L12.6743 6.85658L11.0552 4.54569ZM10 4.7824L11.7417 7.26819H8.2583L10 4.7824ZM10 11.2256L8.18974 8.26819H11.8103L10 11.2256ZM10.8923 11.6833L12.7025 8.72591L14.5128 11.6833H10.8923ZM10.8923 12.6833H14.3366L10.5 17.2808L10.5 12.6833H10.8923ZM13.4286 7.93308L16.9452 5.95209L15.2695 11.004L13.5948 8.26819H13.6634L13.4286 7.93308ZM12.1234 16.8962L15.3425 13.0387L15.5407 13.3626L15.6998 12.8829L17.6161 13.8157L12.1234 16.8962ZM16.0977 11.6833L17.5584 7.27994L18.1099 12.9439L16.1982 12.0133L16.4736 11.6833H16.0977Z" stroke="#6B798F"/>
</svg>
