<svg width="20" height="20" viewBox="0 0 20 20" fill="none" xmlns="http://www.w3.org/2000/svg">
<path d="M14.133 4.775L13.333 0H6.66634L5.87467 4.775C4.32467 5.99167 3.33301 7.875 3.33301 10C3.33301 12.125 4.32467 14.0083 5.87467 15.225L6.66634 20H13.333L14.133 15.225C15.6747 14.0083 16.6663 12.1167 16.6663 10C16.6663 7.88333 15.6747 5.99167 14.133 4.775ZM8.08301 1.66667H11.9247L12.2663 3.73333C11.558 3.475 10.7997 3.33333 9.99967 3.33333C9.20801 3.33333 8.44134 3.475 7.74134 3.725L8.08301 1.66667ZM11.9247 18.3333H8.08301L7.74134 16.275C8.44134 16.525 9.20801 16.6667 9.99967 16.6667C10.7997 16.6667 11.558 16.525 12.2663 16.2667L11.9247 18.3333ZM9.99967 15C7.24134 15 4.99967 12.7583 4.99967 10C4.99967 7.24167 7.24134 5 9.99967 5C12.758 5 14.9997 7.24167 14.9997 10C14.9997 12.7583 12.758 15 9.99967 15Z" fill="#6B798F"/>
</svg>
