<svg width="24" height="24" viewBox="0 0 24 24" fill="none" xmlns="http://www.w3.org/2000/svg">
    <path class="stroke" d="M19.5 6.75H4.5C3.25736 6.75 2.25 7.75736 2.25 9V18C2.25 19.2426 3.25736 20.25 4.5 20.25H19.5C20.7426 20.25 21.75 19.2426 21.75 18V9C21.75 7.75736 20.7426 6.75 19.5 6.75Z" stroke-width="1.5" stroke-linejoin="round"/>
    <path class="stroke" d="M19.2825 6.75022V5.34397C19.2824 4.99907 19.2062 4.65844 19.0592 4.34639C18.9123 4.03434 18.6984 3.75856 18.4326 3.53873C18.1668 3.3189 17.8558 3.16044 17.5217 3.07464C17.1877 2.98885 16.8388 2.97784 16.5 3.04241L4.155 5.14944C3.6189 5.2516 3.13526 5.53765 2.78749 5.95824C2.43972 6.37883 2.24963 6.9076 2.25 7.45335V9.75022" stroke-width="1.5" stroke-linejoin="round"/>
    <path class="fill" d="M17.25 15C16.9533 15 16.6633 14.912 16.4166 14.7472C16.17 14.5824 15.9777 14.3481 15.8642 14.074C15.7506 13.7999 15.7209 13.4983 15.7788 13.2074C15.8367 12.9164 15.9796 12.6491 16.1893 12.4393C16.3991 12.2296 16.6664 12.0867 16.9574 12.0288C17.2483 11.9709 17.5499 12.0006 17.824 12.1142C18.0981 12.2277 18.3324 12.42 18.4972 12.6666C18.662 12.9133 18.75 13.2033 18.75 13.5C18.75 13.8978 18.592 14.2794 18.3107 14.5607C18.0294 14.842 17.6478 15 17.25 15Z"/>
</svg>
