<svg width="24" height="24" viewBox="0 0 24 24" fill="none" xmlns="http://www.w3.org/2000/svg">
    <path class="stroke" d="M9.36865 4.7027V3.08108C9.36865 2.79436 9.47955 2.51938 9.67696 2.31664C9.87437 2.1139 10.1421 2 10.4213 2H20.9476C21.2268 2 21.4945 2.1139 21.6919 2.31664C21.8893 2.51938 22.0002 2.79436 22.0002 3.08108V14.973C22.0002 15.2597 21.8893 15.5347 21.6919 15.7374C21.4945 15.9402 21.2268 16.0541 20.9476 16.0541H18.8423" stroke="none" stroke-width="2" stroke-linecap="round" stroke-linejoin="round"/>
    <path class="stroke" d="M13.5789 9.02734H3.05263C2.47128 9.02734 2 9.51136 2 10.1084V20.9192C2 21.5163 2.47128 22.0003 3.05263 22.0003H13.5789C14.1603 22.0003 14.6316 21.5163 14.6316 20.9192V10.1084C14.6316 9.51136 14.1603 9.02734 13.5789 9.02734Z" stroke="inherit" stroke-width="2" stroke-linecap="round" stroke-linejoin="round"/>
    <path class="stroke" d="M5.68457 15.5132H10.9477M8.31615 12.8105V18.216V12.8105Z" stroke="inherit" stroke-width="2" stroke-linecap="round" stroke-linejoin="round"/>
</svg>
