<svg width="24" height="24" viewBox="0 0 24 24" fill="none" xmlns="http://www.w3.org/2000/svg">
    <path class="stroke fill" d="M20.4004 9.1001H18.9004V8.1001H20.4004C21.2242 8.1001 21.9004 8.77624 21.9004 9.6001V18.6001C21.9004 19.424 21.2242 20.1001 20.4004 20.1001H4.40039C3.57653 20.1001 2.90039 19.424 2.90039 18.6001V9.6001C2.90039 8.77624 3.57653 8.1001 4.40039 8.1001H5.90039V9.1001H4.40039H3.90039V9.6001V18.6001V19.1001H4.40039H20.4004H20.9004V18.6001V9.6001V9.1001H20.4004Z" />
    <path class="fill" d="M8.81039 10.6901L7.40039 12.1001L12.4004 17.1001L17.4004 12.1001L15.9904 10.6901L13.4004 13.2701V3.6001H11.4004V13.2701L8.81039 10.6901Z" />
</svg>
