<svg width="24" height="24" viewBox="0 0 24 24" fill="none" xmlns="http://www.w3.org/2000/svg">
    <path class="fill" d="M4.85714 4.86473C4.85714 4.1073 5.15816 3.3809 5.69398 2.84532C6.2298 2.30973 6.95652 2.00885 7.71429 2.00885C8.47205 2.00885 9.19877 2.30973 9.73459 2.84532C10.2704 3.3809 10.5714 4.1073 10.5714 4.86473C10.5714 5.62215 10.2704 6.34856 9.73459 6.88414C9.19877 7.41972 8.47205 7.72061 7.71429 7.72061C6.95652 7.72061 6.2298 7.41972 5.69398 6.88414C5.15816 6.34856 4.85714 5.62215 4.85714 4.86473ZM7.71429 3.43679C7.33541 3.43679 6.97204 3.58723 6.70413 3.85502C6.43622 4.12281 6.28571 4.48601 6.28571 4.86473C6.28571 5.24344 6.43622 5.60664 6.70413 5.87443C6.97204 6.14222 7.33541 6.29267 7.71429 6.29267C8.09317 6.29267 8.45653 6.14222 8.72444 5.87443C8.99235 5.60664 9.14286 5.24344 9.14286 4.86473C9.14286 4.48601 8.99235 4.12281 8.72444 3.85502C8.45653 3.58723 8.09317 3.43679 7.71429 3.43679ZM14.5414 7.12658C14.2421 6.89839 13.9909 6.61333 13.8022 6.28778C13.6134 5.96223 13.4909 5.60261 13.4417 5.22959C13.3924 4.85657 13.4174 4.47749 13.5151 4.11415C13.6129 3.7508 13.7815 3.41034 14.0113 3.11234C14.2412 2.81434 14.5276 2.56467 14.8543 2.37767C15.1809 2.19068 15.5413 2.07004 15.9147 2.0227C16.2882 1.97535 16.6673 2.00224 17.0303 2.1018C17.3933 2.20137 17.733 2.37165 18.03 2.60287C18.6147 3.07038 18.9924 3.74864 19.0819 4.49171C19.1714 5.23477 18.9655 5.98325 18.5085 6.57611C18.0515 7.16896 17.3799 7.5588 16.6383 7.66175C15.8966 7.7647 15.1442 7.57253 14.5429 7.12658H14.5414ZM16.2857 3.43679C15.9068 3.43679 15.5435 3.58723 15.2756 3.85502C15.0077 4.12281 14.8571 4.48601 14.8571 4.86473C14.8571 5.24344 15.0077 5.60664 15.2756 5.87443C15.5435 6.14222 15.9068 6.29267 16.2857 6.29267C16.6646 6.29267 17.028 6.14222 17.2959 5.87443C17.5638 5.60664 17.7143 5.24344 17.7143 4.86473C17.7143 4.48601 17.5638 4.12281 17.2959 3.85502C17.028 3.58723 16.6646 3.43679 16.2857 3.43679ZM4.14286 9.14854H7.95714C7.8 9.59549 7.71429 10.0767 7.71429 10.5765H4.14286C3.95342 10.5765 3.77174 10.6517 3.63778 10.7856C3.50383 10.9195 3.42857 11.1011 3.42857 11.2905C3.42857 12.4571 3.89286 13.3224 4.62571 13.9107C4.96286 14.182 5.36714 14.4005 5.82429 14.5604C5.48858 14.9171 5.22989 15.339 5.06429 15.7999C4.58476 15.6073 4.13578 15.3462 3.73143 15.0245C2.65714 14.1606 2 12.884 2 11.2905C2 10.7224 2.22576 10.1776 2.62763 9.7759C3.02949 9.37421 3.57454 9.14854 4.14286 9.14854ZM9.52571 9.14854C9.14683 9.80485 9.0443 10.5847 9.24068 11.3166C9.43706 12.0485 9.91626 12.6724 10.5729 13.0511C11.2295 13.4298 12.0097 13.5323 12.7419 13.336C13.4741 13.1397 14.0983 12.6607 14.4771 12.0044C14.856 11.3481 14.9586 10.5682 14.7622 9.83637C14.5658 9.1045 14.0866 8.48058 13.43 8.10187C12.7734 7.72315 11.9932 7.62067 11.261 7.81696C10.5288 8.01325 9.9046 8.49223 9.52571 9.14854ZM11.68 9.18424C11.8893 9.13698 12.1066 9.13731 12.3157 9.18522C12.5249 9.23312 12.7206 9.32737 12.8885 9.46101C13.0563 9.59465 13.192 9.76427 13.2855 9.95734C13.379 10.1504 13.4279 10.362 13.4286 10.5765C13.4285 10.8452 13.3525 11.1083 13.2095 11.3358C13.0664 11.5633 12.8621 11.7458 12.6199 11.8624C12.3778 11.979 12.1076 12.0249 11.8405 11.9949C11.5734 11.9649 11.3202 11.8602 11.1099 11.6928C10.8997 11.5254 10.7409 11.3021 10.652 11.0486C10.563 10.7951 10.5474 10.5216 10.6069 10.2596C10.6665 9.99759 10.7987 9.7577 10.9886 9.56748C11.1784 9.37726 11.418 9.24443 11.68 9.18424ZM19.3743 13.9107C19.0371 14.182 18.6329 14.4005 18.1757 14.5604C18.5109 14.9172 18.7691 15.3391 18.9343 15.7999C19.42 15.6014 19.87 15.3429 20.2686 15.0245C21.3429 14.1606 22 12.884 22 11.2905C22 10.7224 21.7742 10.1776 21.3724 9.7759C20.9705 9.37421 20.4255 9.14854 19.8571 9.14854H16.0429C16.2 9.59549 16.2857 10.0767 16.2857 10.5765H19.8571C20.0466 10.5765 20.2283 10.6517 20.3622 10.7856C20.4962 10.9195 20.5714 11.1011 20.5714 11.2905C20.5714 12.4571 20.1071 13.3224 19.3743 13.9107ZM15.5714 14.8603C16.1397 14.8603 16.6848 15.086 17.0867 15.4877C17.4885 15.8893 17.7143 16.4341 17.7143 17.0022C17.7143 18.5958 17.0586 19.8724 15.9829 20.7363C14.9243 21.5859 13.5043 22 12 22C10.4957 22 9.07571 21.5859 8.01714 20.7363C6.94286 19.8724 6.28571 18.5958 6.28571 17.0022C6.28496 16.7207 6.33987 16.4419 6.44729 16.1816C6.55472 15.9214 6.71253 15.685 6.91166 15.486C7.11079 15.2869 7.34732 15.1292 7.60764 15.0218C7.86797 14.9144 8.14696 14.8595 8.42857 14.8603H15.5714ZM15.5714 16.2882H8.42857C8.23913 16.2882 8.05745 16.3635 7.9235 16.4974C7.78954 16.6313 7.71429 16.8129 7.71429 17.0022C7.71429 18.1688 8.17857 19.0342 8.91143 19.6225C9.66286 20.2251 10.7429 20.5721 12 20.5721C13.2571 20.5721 14.3371 20.2251 15.0886 19.6225C15.8214 19.0342 16.2857 18.1688 16.2857 17.0022C16.2857 16.8129 16.2105 16.6313 16.0765 16.4974C15.9426 16.3635 15.7609 16.2882 15.5714 16.2882Z" fill="none"/>
</svg>
