<svg width="22" height="22" viewBox="0 0 22 22" fill="none" xmlns="http://www.w3.org/2000/svg">
<path class="stroke" d="M8.36719 3.70258V2.08096C8.36719 1.79424 8.47809 1.51926 8.6755 1.31652C8.8729 1.11378 9.14064 0.999878 9.41982 0.999878H19.9461C20.2253 0.999878 20.4931 1.11378 20.6905 1.31652C20.8879 1.51926 20.9988 1.79424 20.9988 2.08096V13.9729C20.9988 14.2596 20.8879 14.5345 20.6905 14.7373C20.4931 14.94 20.2253 15.0539 19.9461 15.0539H17.8409" stroke="#6B798F" stroke-width="2" stroke-linecap="round" stroke-linejoin="round"/>
<path class="stroke" d="M12.5789 8.02722H2.05263C1.47128 8.02722 1 8.51124 1 9.1083V19.9191C1 20.5162 1.47128 21.0002 2.05263 21.0002H12.5789C13.1603 21.0002 13.6316 20.5162 13.6316 19.9191V9.1083C13.6316 8.51124 13.1603 8.02722 12.5789 8.02722Z" stroke="#6B798F" stroke-width="2" stroke-linecap="round" stroke-linejoin="round"/>
<path class="stroke" d="M4.68359 14.5131H9.94675M7.31517 11.8104V17.2158V11.8104Z" stroke="#6B798F" stroke-width="2" stroke-linecap="round" stroke-linejoin="round"/>
</svg>
