<svg width="48" height="48" viewBox="0 0 48 48" fill="none" xmlns="http://www.w3.org/2000/svg">
    <path fill-rule="evenodd" clip-rule="evenodd" d="M23.5829 15C21.3244 15 19.2664 15.746 18.0489 16.3555C17.9389 16.4105 17.8364 16.4645 17.7409 16.5165C17.5519 16.6195 17.3909 16.7155 17.2629 16.8L18.6479 18.839L19.2999 19.0985C21.8479 20.384 25.2649 20.384 27.8134 19.0985L28.5534 18.7145L29.8634 16.8C29.592 16.623 29.3098 16.4632 29.0184 16.3215C27.8074 15.7185 25.7989 15 23.5829 15ZM20.3614 17.308C19.8709 17.2162 19.3865 17.0947 18.9109 16.944C20.0514 16.4375 21.7514 15.9 23.5824 15.9C24.8509 15.9 26.0504 16.158 27.0424 16.485C25.8799 16.6485 24.6394 16.926 23.4574 17.2675C22.5274 17.5365 21.4404 17.5075 20.3614 17.308ZM28.3414 19.84L28.2189 19.902C25.4154 21.316 21.6974 21.316 18.8939 19.902L18.7779 19.843C14.5669 24.4635 11.3519 32.9985 23.5829 32.9985C35.8129 32.9985 32.5194 24.304 28.3414 19.84Z" fill="#3B444E" fill-opacity="0.7"/>
</svg>
