<svg width="16" height="18" viewBox="0 0 16 18" fill="none" xmlns="http://www.w3.org/2000/svg">
<path class="stroke" d="M13.8043 5.91939L13.8041 5.91915C13.3003 5.17394 12.6585 4.53212 11.9133 4.02836L11.9132 4.02826C11.1564 3.51627 10.3062 3.15834 9.41106 2.9749C8.9406 2.87953 8.46161 2.83263 7.98159 2.83495L7.47917 2.83738V2.33496V1.6704L5.49667 3.16663L7.47917 4.66285V4.00163V3.50369L7.9771 3.50163C8.41302 3.49983 8.85076 3.54121 9.27537 3.62847L13.8043 5.91939ZM13.8043 5.91939C14.3164 6.67606 14.6744 7.5263 14.8576 8.42145M13.8043 5.91939L14.2183 5.63913C14.7674 6.45036 15.1511 7.36192 15.3475 8.32163M14.2192 14.0258C15.0564 12.7881 15.5026 11.3275 15.5 9.83329C15.5 9.32557 15.4489 8.81913 15.3475 8.32163M14.2192 14.0258L13.8055 13.7449C13.8055 13.745 13.8054 13.745 13.8054 13.7451M14.2192 14.0258L13.805 13.7457C13.8051 13.7455 13.8053 13.7453 13.8054 13.7451M14.2192 14.0258L13.8054 13.7451M13.8054 13.7451C14.5862 12.5905 15.0024 11.228 15 9.83415L15 9.83334C15 9.35912 14.9522 8.88612 14.8576 8.42145M13.8054 13.7451C13.5528 14.117 13.2659 14.4644 12.9485 14.7827L12.9482 14.783C12.632 15.1005 12.2856 15.3865 11.9139 15.637L11.9137 15.6371C11.1563 16.1481 10.3063 16.506 9.41155 16.6909C8.94698 16.7856 8.47407 16.8333 7.99996 16.8333L7.99908 16.8333C6.60447 16.8359 5.24127 16.4193 4.0863 15.6377C3.34227 15.1336 2.70103 14.4924 2.19682 13.7484C1.51098 12.7301 1.106 11.5521 1.01815 10.3333H1.68634C1.77217 11.4193 2.13717 12.4678 2.74972 13.3755C3.20446 14.0497 3.78477 14.6301 4.45896 15.0849C5.1442 15.5486 5.91406 15.8728 6.72458 16.0389L6.72605 16.0392C7.56742 16.2091 8.43425 16.2091 9.27561 16.0392L9.27562 16.0392L9.27832 16.0387C10.4895 15.7872 11.601 15.1877 12.4766 14.3138L12.4774 14.313C12.7643 14.0253 13.0237 13.7112 13.252 13.375L13.2533 13.3731C13.4809 13.0345 13.6758 12.6751 13.8352 12.2996L13.8359 12.298C14.164 11.5179 14.3331 10.6802 14.3333 9.834L13.8054 13.7451ZM14.8576 8.42145C14.8576 8.42158 14.8576 8.42172 14.8576 8.42186L15.3475 8.32163M14.8576 8.42145L15.3475 8.32163M11.5401 4.58161C12.215 5.03676 12.7959 5.61768 13.251 6.29261C13.958 7.33798 14.335 8.57142 14.3333 9.83338L11.5401 4.58161ZM11.5401 4.58161C10.8551 4.11841 10.0857 3.79457 9.27568 3.62853L11.5401 4.58161Z" fill="#6B798F" stroke="#6B798F"/>
</svg>
