<svg width="48" height="48" viewBox="0 0 48 48" fill="none" xmlns="http://www.w3.org/2000/svg">
<path class="fill" d="M24 12C17.3832 12 12 17.3832 12 24V28.9716C12 30.2004 13.0764 31.2 14.4 31.2H15.6C15.9183 31.2 16.2235 31.0736 16.4485 30.8485C16.6736 30.6235 16.8 30.3183 16.8 30V23.8284C16.8 23.5101 16.6736 23.2049 16.4485 22.9799C16.2235 22.7548 15.9183 22.6284 15.6 22.6284H14.5104C15.1776 17.9844 19.1736 14.4 24 14.4C28.8264 14.4 32.8224 17.9844 33.4896 22.6284H32.4C32.0817 22.6284 31.7765 22.7548 31.5515 22.9799C31.3264 23.2049 31.2 23.5101 31.2 23.8284V31.2C31.2 32.5236 30.1236 33.6 28.8 33.6H26.4V32.4H21.6V36H28.8C31.4472 36 33.6 33.8472 33.6 31.2C34.9236 31.2 36 30.2004 36 28.9716V24C36 17.3832 30.6168 12 24 12Z" fill="#6B798F"/>
</svg>
